<svg width="42" height="42" fill="none" xmlns="http://www.w3.org/2000/svg"><g clip-path="url(#clip0)"><path d="M20.138 42h1.749c9.494 0 14.241 0 17.19-2.948C42.025 36.103 42 31.357 42 21.887v-1.774c0-9.468 0-14.216-2.923-17.165C36.154 0 31.38 0 21.887 0h-1.749C10.643 0 5.897 0 2.948 2.948 0 5.897 0 10.641 0 20.113v1.774c0 9.47 0 14.216 2.948 17.165C5.897 42 10.643 42 20.138 42z" fill="#07F"/><path d="M22.538 30.282c-9.47 0-15.218-6.57-15.441-17.489h4.796c.15 8.02 3.799 11.424 6.596 12.118V12.793h4.598v6.92c2.698-.3 5.52-3.448 6.471-6.92h4.521c-.724 4.272-3.797 7.42-5.97 8.72 2.173 1.05 5.671 3.798 7.02 8.769h-4.971c-1.05-3.323-3.624-5.897-7.071-6.247v6.247h-.55z" fill="#fff"/></g><defs><clipPath id="clip0"><path fill="#fff" d="M0 0h42v42H0z"/></clipPath></defs></svg>