<?xml version="1.0" encoding="utf-8"?>
<!-- Generator: Adobe Illustrator 26.0.2, SVG Export Plug-In . SVG Version: 6.00 Build 0)  -->
<svg version="1.1" id="Слой_1" xmlns="http://www.w3.org/2000/svg" xmlns:xlink="http://www.w3.org/1999/xlink" x="0px" y="0px"
	 viewBox="0 0 154 22.3" style="enable-background:new 0 0 154 22.3;" xml:space="preserve">
<style type="text/css">
	.st0{clip-path:url(#SVGID_00000066506713687457164260000008772458036527839129_);}
	.st1{fill:#32D264;}
	.st2{fill:#5F00A5;}
</style>
<g>
	<g>
		<defs>
			<rect id="SVGID_1_" width="154" height="22.3"/>
		</defs>
		<clipPath id="SVGID_00000077317448096101096770000009439007649147071637_">
			<use xlink:href="#SVGID_1_"  style="overflow:visible;"/>
		</clipPath>
		<g style="clip-path:url(#SVGID_00000077317448096101096770000009439007649147071637_);">
			<path class="st1" d="M69.7,22.3h3.8v-3.2h10.2v3.2h3.8V16h-2V3.6H73.1l-0.3,7.3c-0.1,1.9-0.5,3.4-1.5,5.1h-1.7L69.7,22.3
				L69.7,22.3z M76.4,11.2l0.2-4.5h5.1V16h-6.4C76,14.6,76.4,12.9,76.4,11.2z M97.3,3.6h-7.7v15.6h3.8v-5.7h4c3.5,0,5.6-1.7,5.6-5
				C102.9,5.1,100.9,3.6,97.3,3.6z M93.3,10.3V6.6h3.9c1.3,0,2,0.7,2,1.8c0,1.2-0.7,1.9-2,1.9L93.3,10.3L93.3,10.3z M140,3.6v15.6
				h8.3c3,0,5.7-1,5.7-4.3c0-1.7-0.8-2.8-2.1-3.5c1.1-0.7,1.8-1.8,1.8-3.4c0-3.3-2.6-4.3-5.7-4.3L140,3.6L140,3.6z M143.7,9.8V6.6
				h4.3c1.3,0,2,0.6,2,1.7c0,1.2-0.6,1.6-2,1.6L143.7,9.8L143.7,9.8z M143.7,16.1v-3.3h4.6c1.3,0,1.9,0.5,1.9,1.6s-0.6,1.7-1.9,1.7
				H143.7L143.7,16.1z M121.3,0v2.7l13.5-1.3V0H121.3z M107.7,3.6l-5.2,15.6h4.1l0.7-2.5h5.1l0.8,2.5h4.1l-5.2-15.6
				C112.1,3.6,107.7,3.6,107.7,3.6z M111.5,13.5h-3.4l1.6-6.5h0.1L111.5,13.5z M123.2,3.6h-3.9v15.6h4.3l9.3-10.8h0.1l-0.1,10.8h3.9
				V3.6h-4.3l-9.3,10.8h-0.1L123.2,3.6z"/>
			<path class="st2" d="M40.2,6.6v12.5h3.7V6.6h4.3v-3H35.9v3.1L40.2,6.6L40.2,6.6z M24.5,3.6H21v15.6h4.1l5.3-10.5h0.1l-0.2,10.5
				h3.6V3.6h-4.2l-5.3,10.5h-0.1L24.5,3.6z M54.1,3.6h-3.9v15.6h4.3l9.3-10.8h0.1l-0.1,10.8h3.9V3.6h-4.3l-9.3,10.8H54L54.1,3.6z
				 M18.9,15.2l-3.7-1.6c-1.2,2.1-3,2.5-5.3,2.5c-3.8,0-5.7-1.6-5.7-4.7v-0.2c0-3.1,1.9-4.7,5.7-4.7c2.3,0,4.2,0.4,5.3,2.5l3.7-1.6
				c-1.8-3.5-5.3-4.2-9.1-4.2c-6,0-9.8,3-9.8,7.8v0.6c0,4.8,3.8,7.8,9.8,7.8C13.5,19.5,17.1,18.7,18.9,15.2z"/>
		</g>
	</g>
</g>
</svg>
